<?xml version="1.0" encoding="UTF-8"?>
<svg id="Layer_1" data-name="Layer 1" xmlns="http://www.w3.org/2000/svg" viewBox="0 0 396.18 198.49">
  <defs>
    <style>
      .cls-1 {
        stroke: #fff;
        stroke-width: 5px;
      }

      .cls-1, .cls-2 {
        fill: none;
        stroke-miterlimit: 10;
      }

      .cls-2 {
        stroke: #00aeef;
        stroke-width: 4px;
      }
    </style>
  </defs>
  <path class="cls-2" d="m318.74,144.41c13.75,0,40.16-.76,53.3.21,13.52.99,22.86,16.55,19.04,29.79-3.98,13.8-14.87,22.01-29.33,22.03-23.25.03-59.64.11-82.88,0-23.23-.11-37.21-22.76-25.32-43.93,7.4-13.18,16.79-25.27,25.44-37.74,9.29-13.39,36.05-47.58,45.64-61.18-5.33,0-61.55-.07-66.68.02-5.74.09-29.72.2-35.45.52-19.14,1.07-27.88-20.05-23.09-32.75,4.45-11.77,11.31-17,24.61-17.31,24.72-.58,118.78-.64,143.49-1.54,19.12-.7,31.39,20.98,24.92,35.72-1.54,3.51-3.23,7.01-5.34,10.2-9.54,14.4-36.47,49.68-46.22,63.94-6.88,10.06-14,19.95-21,29.92-.41.58-.68,1.25-1.14,2.11Z"/>
  <path class="cls-2" d="m166.7,18.56C157.35-.1,134.28-3.05,120.64,12.62c-8.04,9.23-8.25,20.28-3.14,31.19,9.92,21.2,19.89,42.39,29.87,63.56l.15-.07c13.36,28.43,17.11,37.78,31.01,65.94,12.1,24.52,36.82,30.96,49.35,12.95,7.39-10.62,6.29-24.44-.4-38.73-13.01-27.76-16.82-36.25-29.88-63.99l-.14.07c-10.19-21.69-20.02-43.56-30.75-64.98Z"/>
  <circle class="cls-2" cx="143.08" cy="154.69" r="22.7"/>
  <path class="cls-1" d="m137.75,108.67c-9.44,21.73-6.53,15.53-16.22,37.15-6.15,13.74-18.44,32.44-32.37,38.18-25.35,10.43-47.81,3.99-67.78-12.72-9.18-7.68-14.62-18.39-17.46-30.26-3.3-13.84-.24-36.16,3-43.59,3.09-7.08,8.24-9.4,15.35-6.46,10.16,4.21,20.23,8.63,30.26,13.16,6.06,2.74,7.97,7.48,5.82,13.82-.88,2.59-2.11,5.06-3.16,7.6-1.67,4.04-.49,7.61,3.02,9.18,3.24,1.45,7.41-.12,9.25-3.53.53-.98.93-2.04,1.37-3.07,15.55-35.8,31.06-71.62,46.69-107.39,4.83-11.04,13.27-18.17,25.51-18.23,20.77-.1,33.79,19.18,25.94,38.52-9.24,22.76-19.45,45.12-29.24,67.65h.01Z"/>
</svg>